<?xml version="1.0" standalone="no"?>
<!DOCTYPE svg PUBLIC "-//W3C//DTD SVG 20010904//EN"
 "http://www.w3.org/TR/2001/REC-SVG-20010904/DTD/svg10.dtd">
<svg version="1.0" xmlns="http://www.w3.org/2000/svg"
 width="1126.000000pt" height="1280.000000pt" viewBox="0 0 1126.000000 1280.000000"
 preserveAspectRatio="xMidYMid meet">
<g transform="translate(0.000000,1280.000000) scale(0.100000,-0.100000)"
fill="#000000" stroke="none">
<path d="M3345 12760 c-55 -21 -124 -52 -153 -69 -29 -17 -66 -31 -82 -31 -38
0 -271 -88 -373 -142 -45 -24 -100 -61 -122 -84 -22 -22 -62 -51 -90 -64 -60
-29 -184 -148 -214 -207 -14 -29 -19 -52 -15 -69 6 -22 0 -32 -29 -59 -43 -39
-61 -74 -76 -143 -24 -113 -5 -388 31 -459 6 -12 27 -28 47 -34 20 -6 46 -20
58 -32 17 -15 42 -21 113 -26 104 -7 111 -12 136 -96 14 -50 14 -50 81 -71 93
-29 104 -45 115 -181 12 -143 18 -156 66 -150 20 3 47 8 59 12 19 6 26 2 40
-26 27 -49 59 -79 87 -79 17 0 30 -10 45 -35 11 -20 29 -38 38 -41 62 -20 73
-29 111 -92 l39 -67 5 -150 c3 -83 14 -205 24 -272 l18 -122 -23 -55 c-25 -61
-50 -158 -51 -196 0 -16 21 -51 55 -94 63 -79 63 -81 36 -228 -11 -57 -25
-138 -30 -180 -6 -42 -15 -96 -20 -120 -5 -24 -17 -95 -26 -158 -9 -63 -26
-142 -37 -175 -24 -72 -191 -425 -258 -545 -26 -47 -70 -125 -97 -175 -129
-232 -359 -599 -387 -617 -6 -4 -21 -8 -32 -8 -15 0 -54 -40 -132 -134 -108
-131 -113 -135 -169 -152 -84 -24 -92 -29 -160 -106 -42 -46 -63 -78 -63 -94
0 -14 -7 -38 -15 -54 -13 -25 -13 -34 0 -77 8 -26 26 -64 40 -83 27 -36 32
-65 14 -76 -19 -12 -4 -98 29 -167 18 -36 32 -71 32 -78 0 -7 17 -46 37 -87
37 -74 38 -74 72 -68 59 9 76 44 57 119 -9 36 14 45 57 22 47 -25 78 -17 91
22 6 18 23 44 39 58 15 14 27 30 27 36 0 11 59 49 77 49 24 0 44 -32 38 -59
-13 -58 87 -101 153 -67 18 9 32 20 32 25 0 4 17 28 39 52 29 34 39 55 43 92
5 40 13 54 56 97 28 28 58 50 66 50 8 0 37 14 63 30 51 32 108 39 160 19 15
-6 57 -15 93 -20 37 -6 73 -17 85 -28 11 -10 28 -21 38 -24 26 -10 22 -52 -7
-65 -24 -11 -46 -61 -46 -105 0 -10 -16 -56 -35 -103 -19 -46 -35 -93 -35
-104 0 -11 -9 -43 -20 -72 -11 -29 -23 -75 -26 -103 -4 -27 -18 -75 -31 -105
-36 -80 -50 -128 -58 -190 -4 -30 -14 -63 -23 -73 -9 -10 -26 -37 -37 -60 -28
-54 -69 -85 -94 -70 -28 18 -91 8 -108 -17 -8 -12 -25 -25 -38 -30 -32 -12
-77 -190 -68 -271 5 -54 4 -56 -27 -80 -18 -13 -49 -39 -69 -58 -20 -19 -58
-47 -86 -61 -27 -15 -55 -36 -60 -48 -30 -57 -54 -63 -140 -36 -68 21 -359 30
-494 15 -650 -71 -1207 -454 -1534 -1055 -125 -228 -229 -568 -266 -871 -6
-49 -16 -129 -22 -177 -20 -149 3 -396 61 -653 45 -202 84 -348 121 -449 50
-137 190 -411 271 -530 40 -59 80 -120 88 -135 55 -97 258 -322 385 -424 365
-294 802 -477 1275 -532 434 -51 832 16 1215 206 192 94 312 178 458 319 178
171 306 358 419 612 126 281 181 525 209 916 9 136 8 174 -7 284 -16 121 -16
128 0 153 15 22 23 26 44 20 58 -15 140 -1 160 27 12 17 22 18 88 12 73 -7 74
-7 101 25 15 17 33 31 40 31 7 0 52 -26 100 -58 48 -32 104 -68 123 -80 19
-11 44 -35 55 -52 13 -21 47 -45 103 -73 46 -23 111 -65 145 -95 34 -29 102
-73 152 -98 49 -25 122 -69 160 -99 39 -29 81 -56 95 -60 14 -4 36 -17 50 -30
39 -36 84 -54 155 -64 74 -11 87 -19 105 -60 10 -24 8 -35 -9 -70 -25 -48 -27
-91 -6 -131 20 -38 42 -43 139 -35 51 4 98 2 126 -5 122 -32 255 -31 265 1 7
21 148 92 173 87 14 -3 17 -17 18 -79 0 -72 3 -81 46 -155 26 -44 63 -119 83
-168 82 -201 219 -452 338 -621 386 -546 996 -870 1720 -912 95 -6 151 -1 387
34 661 95 1238 490 1510 1032 59 119 122 285 164 431 58 203 77 317 117 675
16 147 5 340 -36 618 -49 330 -183 726 -346 1021 -411 743 -1022 1188 -1784
1297 -116 17 -444 17 -560 0 -194 -28 -339 -71 -402 -121 -14 -11 -40 -20 -58
-20 -41 0 -79 41 -90 97 -21 119 -94 300 -229 573 -85 171 -150 314 -159 353
-20 80 -23 270 -4 307 7 14 31 34 55 46 23 11 63 39 88 63 44 41 46 45 39 86
-4 33 0 61 19 118 15 40 26 94 26 119 0 26 9 75 21 110 12 38 24 110 29 183
10 143 45 256 113 368 24 40 54 98 65 130 12 32 33 79 46 105 13 26 43 94 67
152 23 58 51 119 61 135 10 17 18 48 18 70 0 22 7 68 15 103 11 45 12 74 6
105 -12 53 -17 422 -6 460 6 22 2 36 -19 66 -21 30 -28 54 -32 112 -3 41 -12
88 -20 106 -8 17 -14 42 -14 55 0 14 -7 47 -15 74 -8 27 -24 87 -35 133 -11
46 -42 129 -69 185 -28 55 -53 119 -56 141 -11 66 -14 72 -53 99 -20 14 -64
55 -96 92 -49 54 -64 81 -86 148 -26 78 -29 82 -78 109 -28 15 -81 61 -119
103 -37 41 -158 166 -268 278 -163 166 -212 209 -262 235 -45 22 -73 46 -102
84 -78 103 -227 228 -441 369 -299 196 -445 275 -770 412 -213 89 -238 98
-415 135 -196 42 -266 50 -545 61 -260 10 -350 20 -469 51 -110 28 -173 25
-250 -11 -59 -28 -65 -29 -87 -15 -13 8 -27 28 -30 43 -4 15 -20 45 -35 66
-35 49 -36 60 -4 98 21 24 25 40 25 89 0 38 9 86 25 131 36 103 34 117 -22
165 -34 28 -64 70 -102 139 -78 143 -99 174 -119 174 -10 0 -35 29 -64 74 -45
73 -126 146 -158 145 -8 -1 -60 -18 -115 -39z m834 -3181 c108 -44 327 -144
546 -249 84 -40 204 -90 242 -101 73 -22 69 -82 -21 -349 -36 -107 -77 -238
-91 -290 -25 -93 -121 -308 -152 -342 -9 -10 -26 -18 -39 -18 -30 0 -84 -48
-124 -111 -30 -45 -35 -49 -61 -44 -25 6 -30 3 -44 -32 -15 -35 -15 -41 0 -72
19 -39 11 -52 -46 -81 -20 -11 -56 -42 -80 -70 -36 -41 -51 -52 -84 -56 -71
-10 -83 -14 -115 -40 -50 -43 -62 -77 -61 -170 l2 -83 -40 -31 c-22 -18 -42
-42 -45 -54 -4 -18 -35 -31 -183 -80 -260 -85 -317 -111 -358 -158 l-34 -41
-65 34 c-61 32 -65 33 -84 16 -11 -10 -35 -17 -60 -17 -33 0 -44 -5 -54 -24
-7 -13 -23 -42 -35 -64 -13 -22 -27 -43 -32 -46 -5 -3 -31 -1 -59 5 -62 15
-122 5 -129 -22 -6 -20 -37 -26 -48 -8 -10 16 -55 30 -75 24 -13 -4 -17 -15
-16 -38 2 -44 -24 -42 -47 3 -13 25 -17 50 -13 85 10 115 18 132 112 227 49
50 108 104 130 122 155 118 385 332 474 441 31 39 83 111 116 160 32 50 75
113 96 142 22 28 52 85 68 126 16 42 43 103 60 136 36 72 63 169 120 426 24
105 66 289 96 410 29 121 58 252 64 290 14 88 17 95 31 95 7 0 69 -23 138 -51z
m2295 -1872 c27 -180 36 -283 30 -372 -3 -50 -1 -110 5 -135 15 -66 -6 -308
-28 -319 -9 -5 -72 -11 -141 -15 -190 -10 -300 -42 -374 -106 -70 -62 -49 -64
137 -11 195 56 214 58 257 27 19 -14 78 -54 131 -90 53 -36 106 -78 117 -94
22 -31 72 -295 72 -382 0 -26 -20 -126 -45 -224 -24 -97 -53 -221 -64 -275
-25 -121 -36 -146 -77 -172 -40 -24 -47 -43 -34 -89 30 -106 -1 -178 -90 -204
-27 -8 -102 -37 -167 -64 -193 -80 -337 -125 -377 -118 -19 4 -91 45 -161 91
-69 47 -159 103 -199 125 l-74 41 -6 87 c-11 140 -44 371 -87 598 -30 165 -53
255 -104 407 -36 108 -65 206 -65 219 0 28 92 162 126 184 18 13 30 14 53 6
38 -13 110 1 186 38 33 16 78 33 100 39 81 21 235 125 386 259 207 185 267
258 325 396 54 128 61 139 104 171 39 29 58 23 64 -18z m-2046 -399 c2 -16
-18 -65 -55 -134 l-58 -109 2 -90 c1 -88 45 -292 73 -346 16 -29 39 -162 40
-227 0 -29 11 -118 25 -198 27 -154 31 -219 16 -229 -6 -3 -115 65 -243 151
-237 159 -388 241 -533 289 -96 32 -115 47 -115 92 0 18 -9 49 -20 70 -24 44
-16 63 38 87 39 18 40 20 61 108 12 49 19 99 16 109 -8 24 11 49 37 49 12 0
23 10 29 29 11 32 68 67 93 58 9 -4 16 -18 16 -33 0 -23 3 -26 28 -22 15 3 34
8 43 12 11 5 22 1 30 -10 59 -73 128 -106 174 -82 29 16 72 85 144 233 29 61
66 125 82 143 16 18 29 38 29 45 0 17 22 38 35 34 5 -2 11 -15 13 -29z m-740
-184 c30 -21 28 -64 -5 -106 -15 -18 -28 -35 -30 -37 -2 -3 -13 5 -26 15 -12
11 -34 28 -49 37 -38 24 -35 42 14 77 47 34 64 37 96 14z m269 -1089 c50 -24
159 -96 244 -159 85 -63 183 -132 218 -153 102 -60 124 -89 155 -199 21 -74
26 -118 27 -200 0 -102 1 -105 25 -114 28 -11 38 -34 48 -105 4 -36 2 -56 -7
-70 -16 -21 -37 -12 -37 16 0 12 -10 23 -26 29 -19 8 -24 15 -19 29 4 13 -2
25 -21 40 -14 11 -30 18 -35 16 -17 -11 -28 -76 -17 -100 6 -13 8 -35 4 -50
-10 -40 -47 -31 -59 15 -14 54 -207 445 -287 582 -88 149 -117 181 -197 218
-49 22 -66 36 -82 67 -11 22 -36 59 -55 82 -33 40 -45 78 -29 94 16 17 68 4
150 -38z m2976 -314 c100 -166 241 -477 283 -626 8 -27 30 -97 48 -155 19 -58
55 -172 79 -255 49 -165 51 -222 10 -268 -11 -12 -27 -35 -34 -52 -8 -16 -29
-39 -46 -50 -18 -11 -37 -35 -44 -54 -6 -18 -26 -50 -45 -70 -35 -39 -114
-193 -114 -222 0 -10 -18 -33 -39 -51 -38 -32 -42 -33 -133 -34 -101 -1 -155
-12 -235 -50 -45 -21 -58 -23 -95 -14 -24 5 -68 10 -99 10 -38 0 -61 5 -69 15
-10 12 3 81 65 362 87 391 116 523 146 668 35 171 99 428 114 463 14 30 17 32
70 32 47 0 55 3 55 19 0 22 -20 32 -48 24 -14 -3 -25 3 -37 21 -24 36 -18 103
30 316 16 76 28 100 49 100 6 0 46 -58 89 -129z m-3356 -45 c81 -61 199 -186
254 -271 84 -126 217 -381 355 -678 75 -160 217 -458 316 -662 109 -224 182
-386 185 -411 5 -39 2 -44 -68 -125 -124 -141 -194 -209 -217 -209 -41 0 -71
43 -132 188 -72 173 -139 300 -241 452 -134 200 -367 465 -494 561 -41 31 -55
48 -53 63 3 20 10 21 113 24 85 2 131 -2 202 -18 113 -26 137 -24 141 11 3 25
-7 31 -140 98 -118 59 -431 190 -515 215 -33 10 -36 36 -14 123 11 43 36 150
56 238 25 113 43 171 61 197 20 28 27 55 33 120 10 106 21 128 65 128 25 0 50
-12 93 -44z m-466 -393 c-29 -120 -56 -228 -61 -240 -13 -31 -60 -30 -96 0
-31 27 -28 57 7 57 23 0 23 -1 3 170 -4 39 0 53 33 108 21 35 59 84 86 109 44
41 50 44 64 30 14 -14 11 -36 -36 -234z m3270 -215 c15 -27 7 -97 -26 -224
-28 -109 -46 -133 -79 -109 -12 9 -48 34 -82 56 -33 21 -66 51 -72 65 -15 31
-15 89 -1 115 10 20 199 117 231 118 10 1 22 -9 29 -21z m-897 -45 c28 -20
155 -103 281 -183 374 -238 451 -291 469 -320 20 -34 20 -112 2 -195 -67 -294
-160 -674 -170 -700 -8 -18 -26 -41 -41 -51 -15 -11 -54 -43 -86 -71 -92 -82
-146 -71 -185 36 -46 123 -70 176 -140 298 -41 73 -85 156 -98 186 -23 51 -61
206 -86 344 -10 59 -15 95 -40 308 -16 133 -21 357 -8 372 18 22 48 15 102
-24z m-872 -130 c25 -22 23 -59 -4 -77 -29 -20 -34 -20 -58 4 -51 51 9 121 62
73z m4368 -204 c47 -5 108 -11 137 -14 68 -7 238 -51 289 -75 22 -11 45 -20
51 -20 42 0 232 -107 363 -203 100 -74 316 -280 366 -348 16 -21 41 -54 56
-71 87 -99 249 -381 308 -533 13 -33 31 -78 41 -100 28 -63 90 -276 83 -286
-3 -6 -1 -15 5 -22 11 -14 27 -80 35 -145 3 -23 7 -46 10 -51 4 -5 13 -68 21
-140 20 -169 15 -562 -9 -701 -35 -201 -67 -341 -91 -390 -7 -14 -20 -50 -29
-80 -19 -58 -94 -217 -147 -310 -46 -81 -137 -203 -222 -300 -70 -80 -224
-220 -250 -229 -7 -2 -16 -9 -22 -15 -30 -36 -247 -156 -282 -156 -8 0 -16 7
-19 15 -9 24 -24 18 -24 -10 0 -27 -27 -37 -170 -69 -115 -25 -147 -27 -160
-12 -10 13 -14 12 -31 -5 -17 -17 -34 -19 -177 -19 -124 0 -162 3 -179 15 -15
11 -24 12 -29 4 -4 -7 -23 -9 -53 -4 -57 9 -224 61 -271 85 -19 10 -69 35
-110 55 -82 41 -240 141 -335 213 -126 96 -337 316 -391 409 -11 17 -45 68
-77 113 -69 96 -90 141 -81 174 7 29 -34 106 -56 106 -32 0 -55 50 -30 65 16
10 48 -4 52 -22 5 -27 71 -27 111 0 28 19 54 25 124 30 86 6 89 7 119 42 16
20 61 53 100 74 63 34 72 43 107 106 26 50 36 78 32 98 -3 16 1 40 9 55 7 15
16 47 20 71 9 60 22 80 62 97 26 11 40 12 54 4 11 -6 26 -10 33 -9 28 3 37 -2
37 -23 0 -38 14 -52 38 -39 26 14 51 -11 33 -33 -9 -11 -9 -25 0 -60 9 -38 14
-44 25 -35 8 6 14 26 14 43 0 43 25 111 42 111 7 0 13 -7 14 -15 0 -8 3 -22 7
-30 4 -8 8 -46 9 -85 l3 -70 33 -3 c38 -4 39 1 12 59 -20 46 -27 124 -11 134
6 3 10 13 10 23 0 27 8 70 15 81 11 17 82 34 111 27 36 -9 29 -38 -13 -50 -17
-5 -32 -15 -32 -22 0 -10 7 -11 33 -3 17 6 40 14 49 19 11 6 19 6 23 0 4 -6
13 -5 25 3 28 17 69 -10 98 -64 24 -47 28 -86 11 -139 -6 -19 -13 -61 -15 -92
-3 -55 -44 -158 -62 -158 -4 0 -13 -18 -19 -40 -5 -22 -7 -40 -3 -40 11 0 40
-76 40 -103 0 -13 -5 -28 -12 -35 -9 -9 -8 -21 1 -52 13 -45 5 -88 -30 -146
-12 -20 -23 -66 -29 -125 -13 -129 -13 -128 9 -122 11 3 33 -5 51 -19 17 -12
44 -24 58 -25 15 0 36 -3 46 -5 16 -2 26 9 46 52 25 53 26 59 19 185 -3 72
-12 171 -19 221 -11 83 -10 95 9 160 29 94 31 96 91 99 34 2 59 10 73 22 27
24 75 43 102 41 25 -2 75 30 75 48 0 8 10 14 25 14 39 0 72 40 81 96 17 119
105 193 159 134 10 -11 22 -20 26 -20 14 0 36 52 43 102 4 26 11 50 16 53 5 3
7 12 4 19 -3 8 0 17 5 21 6 3 9 11 5 16 -3 5 0 34 7 63 11 53 7 106 -10 106
-4 0 -24 -16 -44 -35 -41 -40 -52 -43 -67 -16 -5 11 -18 22 -29 26 -10 3 -21
18 -24 33 -3 15 -13 63 -22 107 -9 44 -17 87 -17 95 -1 8 -7 20 -13 27 -7 6
-15 35 -19 63 -6 48 -9 52 -56 78 -40 21 -51 34 -56 60 -3 17 -11 32 -17 32
-6 0 -18 7 -28 16 -17 15 -40 19 -160 28 -25 2 -54 8 -65 14 -35 18 -108 42
-131 42 -13 0 -32 12 -45 30 -12 17 -27 30 -32 30 -21 1 -58 40 -53 55 4 8 2
28 -4 44 -11 32 -15 33 -172 53 -68 9 -93 9 -105 0 -33 -23 -45 -25 -57 -9
-16 23 -28 21 -20 -2 12 -37 -77 -38 -111 0 -9 10 -25 19 -35 19 -10 0 -24 8
-31 18 -7 11 -30 22 -52 26 -59 11 -104 37 -116 66 -6 15 -10 52 -9 83 1 31 0
60 -4 63 -3 4 -2 15 4 26 7 13 7 23 0 31 -5 7 -12 35 -15 62 -7 61 -28 580
-27 687 0 131 39 178 207 248 40 16 81 30 91 30 11 0 24 5 29 10 18 18 226 60
324 66 52 2 96 7 99 9 6 7 63 5 161 -6z m-6687 -99 c83 -19 156 -56 167 -86
17 -44 11 -86 -41 -295 -27 -112 -64 -267 -80 -344 -36 -169 -57 -253 -69
-280 -5 -11 -11 -42 -13 -70 -7 -73 -58 -308 -70 -323 -5 -7 -26 -12 -46 -11
-20 1 -49 -4 -64 -10 -16 -6 -39 -8 -53 -5 -19 5 -24 2 -24 -14 0 -20 -41 -39
-60 -27 -16 10 -12 33 8 45 14 10 13 11 -8 6 -14 -3 -34 -6 -45 -6 -28 0 -102
-49 -108 -71 -3 -10 -22 -25 -43 -33 -57 -23 -67 -30 -85 -62 -23 -39 -23 -54
1 -54 12 0 20 -7 20 -17 0 -13 8 -8 28 15 42 51 136 69 176 34 12 -10 33 -24
49 -32 15 -7 27 -16 27 -19 0 -3 18 -26 39 -50 32 -35 38 -48 30 -63 -14 -26
-38 -35 -91 -32 -42 1 -48 -1 -48 -19 0 -17 5 -19 35 -14 19 3 35 2 35 -2 0
-12 -68 -57 -112 -76 -57 -23 -138 -19 -138 9 0 6 -16 22 -35 35 -24 16 -36
34 -41 58 -5 24 -11 33 -21 29 -8 -3 -18 -6 -23 -6 -4 0 -10 -9 -13 -20 -3
-11 -14 -20 -25 -20 -17 0 -19 -5 -13 -32 6 -27 11 -32 30 -30 20 3 22 0 19
-30 -2 -25 -8 -34 -25 -36 -13 -2 -23 1 -23 7 0 6 -5 11 -12 11 -9 0 -9 -3 0
-12 7 -7 12 -38 12 -69 0 -32 5 -61 10 -64 19 -12 50 -84 50 -115 0 -17 8 -47
19 -68 10 -20 24 -56 31 -79 7 -24 18 -43 24 -43 6 0 20 -14 31 -30 11 -17 25
-28 30 -26 44 16 55 16 55 4 0 -8 -5 -19 -11 -25 -8 -8 -5 -14 12 -23 13 -7
36 -24 51 -38 24 -22 28 -23 34 -9 8 21 53 22 60 2 4 -8 1 -22 -6 -30 -9 -11
-4 -19 31 -41 39 -24 49 -26 108 -20 40 3 69 2 77 -5 17 -14 150 -6 194 12 47
19 54 31 28 50 -11 9 -18 21 -14 28 9 14 49 14 63 0 7 -7 15 -2 27 15 9 14 22
23 29 21 6 -3 26 6 42 19 l30 24 -27 -5 c-36 -7 -51 23 -23 44 16 11 21 11 34
-1 12 -13 19 -10 54 25 36 38 39 44 35 92 l-3 52 35 -3 c121 -10 125 -9 128
23 2 17 6 37 9 45 9 21 11 33 22 127 11 94 7 121 -23 145 -18 15 -19 20 -8 37
15 25 15 56 1 83 -8 15 -8 27 2 47 7 14 12 30 10 35 -1 5 12 58 29 118 27 97
60 232 77 308 3 14 13 54 23 90 10 36 26 101 35 145 10 44 23 90 31 102 8 12
14 33 14 46 0 13 11 57 25 97 14 41 23 81 20 89 -6 21 61 319 76 337 6 8 17
14 24 14 43 0 295 -250 421 -417 83 -109 204 -305 204 -330 0 -7 4 -13 9 -13
13 0 109 -199 125 -260 8 -30 22 -75 30 -99 9 -24 25 -85 36 -135 10 -50 24
-109 29 -131 37 -150 56 -325 55 -500 -1 -176 -9 -243 -38 -355 -31 -120 -43
-150 -57 -150 -7 0 -9 -9 -6 -21 5 -20 -23 -97 -78 -212 -24 -51 -30 -58 -51
-54 -28 5 -28 4 -11 -23 14 -24 -4 -61 -99 -197 -49 -69 -63 -83 -81 -80 -19
4 -22 1 -17 -20 5 -19 -8 -38 -77 -109 -103 -105 -136 -131 -152 -115 -18 18
-28 13 -21 -13 4 -18 -2 -29 -33 -53 -63 -51 -189 -123 -213 -123 -12 0 -29
-9 -38 -19 -19 -21 -123 -64 -197 -81 -28 -7 -63 -16 -80 -20 -51 -15 -195
-29 -295 -29 -110 0 -318 25 -337 40 -6 6 -16 8 -22 5 -10 -7 -200 48 -305 88
-184 70 -430 213 -585 340 -160 132 -380 386 -452 522 -16 31 -37 68 -47 82
-32 47 -78 136 -96 187 -10 28 -26 68 -36 90 -27 63 -78 223 -95 300 -9 39
-26 113 -38 165 -19 84 -21 124 -21 345 0 259 17 433 50 499 8 16 14 42 14 59
0 32 57 209 87 273 16 33 23 39 47 37 27 -2 28 -1 11 17 -11 12 -15 28 -12 42
8 29 96 172 136 218 26 31 32 34 50 23 30 -19 37 -16 17 6 -11 12 -15 27 -12
39 9 26 190 202 209 202 9 0 18 8 21 18 9 27 225 172 257 172 8 0 20 -5 27
-12 9 -9 12 -6 12 14 0 22 9 30 68 55 129 58 287 98 432 112 113 11 338 6 403
-9z m555 -182 c18 -15 15 -49 -13 -152 -50 -188 -222 -948 -230 -1021 -3 -22
-14 -71 -26 -110 -11 -38 -23 -81 -26 -95 -12 -55 -42 -65 -79 -24 -28 29 -31
69 -9 121 8 19 15 44 15 54 0 23 64 295 120 509 22 85 59 245 81 354 22 110
45 210 50 224 5 14 14 45 20 71 15 66 35 94 62 85 12 -3 28 -11 35 -16z m4749
-598 c30 -60 43 -133 31 -177 -12 -42 -32 -51 -72 -30 -17 9 -43 21 -58 26
-25 9 -28 15 -28 56 0 25 7 62 16 83 17 42 63 94 79 89 5 -1 20 -23 32 -47z
m-1102 -351 c4 -5 17 -9 28 -7 25 3 116 -39 123 -56 7 -21 -24 -91 -50 -111
-25 -18 -28 -18 -59 -3 -17 9 -50 24 -72 33 -21 9 -47 23 -57 32 -41 37 -4
123 52 123 16 0 32 -5 35 -11z m-102 -285 c10 -3 17 -15 17 -31 0 -32 -89
-200 -110 -208 -21 -9 -57 36 -71 87 -16 62 -6 118 27 146 23 20 34 23 73 17
25 -3 54 -8 64 -11z m-4233 -29 c0 -9 -7 -18 -16 -22 -18 -7 -39 11 -30 26 11
17 46 13 46 -4z m3503 -26 c13 -20 1 -68 -19 -76 -29 -11 -64 14 -64 46 0 47
59 68 83 30z m-3733 -19 c25 -25 27 -60 3 -60 -25 0 -83 37 -83 53 0 33 50 37
80 7z m220 -15 c9 -11 8 -34 -7 -107 -20 -104 -35 -118 -78 -76 -19 18 -25 33
-24 68 0 66 19 113 49 121 39 11 47 10 60 -6z m5140 -55 c0 -5 -4 -10 -10 -10
-5 0 -10 5 -10 10 0 6 5 10 10 10 6 0 10 -4 10 -10z m-5570 -35 c0 -19 -24
-29 -46 -21 -13 5 -14 9 -4 21 16 20 50 19 50 0z m5750 -29 c30 -8 78 -20 105
-28 l50 -13 0 -50 c-1 -28 -4 -59 -9 -70 -4 -11 -10 -37 -11 -58 -2 -21 -9
-44 -15 -52 -6 -8 -9 -18 -6 -23 8 -14 -54 -185 -76 -209 -22 -24 -40 -28
-149 -38 -105 -10 -101 -19 -97 269 3 169 7 248 16 264 11 19 21 22 75 22 34
0 87 -7 117 -14z m-793 -229 c36 -20 94 -116 91 -150 -5 -47 -29 -55 -82 -28
-45 22 -50 29 -47 64 2 12 -5 17 -23 17 -24 0 -26 4 -26 39 0 62 37 86 87 58z
m-5011 -143 c-12 -48 -57 -105 -80 -102 -13 2 -19 9 -17 18 2 8 5 27 6 42 4
36 13 48 35 48 10 0 22 5 25 10 3 6 13 10 22 10 11 0 14 -6 9 -26z m213 -7 c7
-9 8 -31 1 -69 -9 -56 -9 -56 30 -98 47 -51 60 -105 36 -153 -21 -46 -124 -96
-161 -79 -14 6 -25 18 -25 26 0 8 -12 21 -27 28 -17 8 -29 23 -31 38 -2 14
-10 32 -17 40 -23 26 -36 93 -25 130 10 36 53 86 85 101 11 5 27 13 35 17 46
26 56 31 71 31 9 1 21 -5 28 -12z m214 -265 c-2 -7 10 -12 31 -12 18 0 39 -7
46 -15 6 -8 24 -14 38 -14 15 0 51 -3 80 -7 49 -6 55 -10 77 -49 41 -69 27
-155 -25 -155 -10 0 -23 -6 -29 -14 -16 -19 -87 -35 -135 -31 -50 5 -88 33
-102 75 -6 19 -17 36 -23 38 -32 11 -37 142 -5 142 19 0 27 19 15 34 -6 7 -8
16 -4 20 11 10 38 1 36 -12z m475 -45 c14 -16 5 -28 -35 -49 -26 -13 -37 -14
-57 -5 -32 15 -33 32 -3 42 12 5 31 11 42 15 30 12 42 11 53 -3z m-556 -174
c12 -20 31 -48 41 -63 20 -31 14 -60 -12 -60 -10 0 -34 15 -54 33 -29 26 -37
40 -37 68 0 32 14 59 31 59 4 0 18 -16 31 -37z m7318 -12 c0 -50 -8 -71 -27
-71 -13 0 -15 9 -9 46 3 25 8 50 12 55 12 21 24 7 24 -30z m-7022 -89 c2 -7
-6 -12 -17 -12 -21 0 -27 11 -14 24 9 9 26 2 31 -12z m-63 -17 c0 -13 -8 -21
-24 -23 -32 -5 -48 12 -31 33 18 22 55 15 55 -10z m6695 -135 c0 -5 -4 -10
-10 -10 -5 0 -10 5 -10 10 0 6 5 10 10 10 6 0 10 -4 10 -10z m-2 -292 c30 -30
3 -198 -31 -198 -27 0 -36 89 -16 151 6 19 12 40 15 47 4 15 17 15 32 0z"/>
<path d="M8951 3884 c0 -11 3 -14 6 -6 3 7 2 16 -1 19 -3 4 -6 -2 -5 -13z"/>
<path d="M8951 3794 c0 -11 3 -14 6 -6 3 7 2 16 -1 19 -3 4 -6 -2 -5 -13z"/>
<path d="M9826 3654 c-9 -24 -7 -28 9 -14 17 14 20 30 6 30 -5 0 -12 -7 -15
-16z"/>
<path d="M9775 3589 c-4 -6 -5 -13 -2 -16 7 -7 27 6 27 18 0 12 -17 12 -25 -2z"/>
<path d="M8140 3495 c7 -8 16 -15 21 -15 5 0 6 7 3 15 -4 8 -13 15 -21 15 -13
0 -13 -3 -3 -15z"/>
<path d="M8881 3454 c0 -11 3 -14 6 -6 3 7 2 16 -1 19 -3 4 -6 -2 -5 -13z"/>
<path d="M9050 3444 c0 -8 5 -12 10 -9 6 3 10 10 10 16 0 5 -4 9 -10 9 -5 0
-10 -7 -10 -16z"/>
<path d="M8206 3425 c4 -8 13 -15 21 -15 13 0 13 3 3 15 -7 8 -16 15 -21 15
-5 0 -6 -7 -3 -15z"/>
<path d="M8880 3400 c0 -5 5 -10 10 -10 6 0 10 5 10 10 0 6 -4 10 -10 10 -5 0
-10 -4 -10 -10z"/>
<path d="M9051 3394 c0 -11 3 -14 6 -6 3 7 2 16 -1 19 -3 4 -6 -2 -5 -13z"/>
<path d="M9430 3280 c0 -5 5 -10 10 -10 6 0 10 5 10 10 0 6 -4 10 -10 10 -5 0
-10 -4 -10 -10z"/>
<path d="M9620 3209 c0 -5 5 -7 10 -4 6 3 10 8 10 11 0 2 -4 4 -10 4 -5 0 -10
-5 -10 -11z"/>
<path d="M9590 3175 c-7 -9 -8 -15 -2 -15 5 0 12 7 16 15 3 8 4 15 2 15 -2 0
-9 -7 -16 -15z"/>
<path d="M9385 3060 c-3 -5 -1 -10 4 -10 6 0 11 5 11 10 0 6 -2 10 -4 10 -3 0
-8 -4 -11 -10z"/>
<path d="M10320 2860 c-13 -8 -12 -10 3 -10 9 0 17 5 17 10 0 12 -1 12 -20 0z"/>
<path d="M9828 2843 c7 -3 16 -2 19 1 4 3 -2 6 -13 5 -11 0 -14 -3 -6 -6z"/>
<path d="M9770 2830 c0 -5 5 -10 10 -10 6 0 10 5 10 10 0 6 -4 10 -10 10 -5 0
-10 -4 -10 -10z"/>
<path d="M10230 2830 c0 -5 7 -7 15 -4 8 4 15 8 15 10 0 2 -7 4 -15 4 -8 0
-15 -4 -15 -10z"/>
<path d="M9895 2660 c-3 -5 1 -10 10 -10 9 0 13 5 10 10 -3 6 -8 10 -10 10 -2
0 -7 -4 -10 -10z"/>
<path d="M9835 2650 c-3 -5 1 -10 10 -10 9 0 13 5 10 10 -3 6 -8 10 -10 10 -2
0 -7 -4 -10 -10z"/>
<path d="M9745 2260 c3 -5 11 -10 16 -10 6 0 7 5 4 10 -3 6 -11 10 -16 10 -6
0 -7 -4 -4 -10z"/>
<path d="M9800 2240 c0 -5 5 -10 11 -10 5 0 7 5 4 10 -3 6 -8 10 -11 10 -2 0
-4 -4 -4 -10z"/>
<path d="M8270 2135 c-14 -16 -3 -20 19 -6 8 5 9 11 3 15 -5 3 -15 -1 -22 -9z"/>
<path d="M8220 2110 c-8 -5 -11 -12 -7 -16 4 -4 13 -2 19 4 15 15 7 24 -12 12z"/>
<path d="M9720 2080 c0 -5 7 -10 16 -10 8 0 12 5 9 10 -3 6 -10 10 -16 10 -5
0 -9 -4 -9 -10z"/>
<path d="M8330 2045 c-11 -13 -10 -14 4 -9 9 3 16 10 16 15 0 13 -6 11 -20 -6z"/>
<path d="M9775 2050 c3 -5 8 -10 11 -10 2 0 4 5 4 10 0 6 -5 10 -11 10 -5 0
-7 -4 -4 -10z"/>
<path d="M8285 2010 c-3 -5 -1 -10 4 -10 6 0 11 5 11 10 0 6 -2 10 -4 10 -3 0
-8 -4 -11 -10z"/>
<path d="M8690 1734 c0 -8 5 -12 10 -9 6 3 10 10 10 16 0 5 -4 9 -10 9 -5 0
-10 -7 -10 -16z"/>
<path d="M9260 1731 c0 -6 5 -13 10 -16 6 -3 10 1 10 9 0 9 -4 16 -10 16 -5 0
-10 -4 -10 -9z"/>
<path d="M8665 1680 c-3 -5 -1 -10 4 -10 6 0 11 5 11 10 0 6 -2 10 -4 10 -3 0
-8 -4 -11 -10z"/>
<path d="M9285 1670 c3 -5 8 -10 11 -10 2 0 4 5 4 10 0 6 -5 10 -11 10 -5 0
-7 -4 -4 -10z"/>
<path d="M8660 1449 c0 -11 5 -17 10 -14 6 3 10 13 10 21 0 8 -4 14 -10 14 -5
0 -10 -9 -10 -21z"/>
<path d="M8634 1369 c-3 -6 -1 -16 5 -22 8 -8 11 -5 11 11 0 24 -5 28 -16 11z"/>
<path d="M1500 3491 c0 -5 5 -13 10 -16 6 -3 10 -2 10 4 0 5 -4 13 -10 16 -5
3 -10 2 -10 -4z"/>
<path d="M1555 3420 c3 -5 11 -10 16 -10 6 0 7 5 4 10 -3 6 -11 10 -16 10 -6
0 -7 -4 -4 -10z"/>
<path d="M1670 3180 c0 -5 5 -10 11 -10 5 0 7 5 4 10 -3 6 -8 10 -11 10 -2 0
-4 -4 -4 -10z"/>
<path d="M1710 3140 c0 -5 5 -10 11 -10 5 0 7 5 4 10 -3 6 -8 10 -11 10 -2 0
-4 -4 -4 -10z"/>
<path d="M1594 2881 c-10 -10 -3 -20 11 -15 8 4 21 1 29 -5 11 -9 15 -8 20 5
3 8 6 17 6 18 0 5 -61 1 -66 -3z"/>
<path d="M3380 2880 c0 -5 4 -10 9 -10 6 0 13 5 16 10 3 6 -1 10 -9 10 -9 0
-16 -4 -16 -10z"/>
<path d="M3310 2860 c0 -5 7 -7 15 -4 8 4 15 8 15 10 0 2 -7 4 -15 4 -8 0 -15
-4 -15 -10z"/>
<path d="M1198 2743 c7 -3 16 -2 19 1 4 3 -2 6 -13 5 -11 0 -14 -3 -6 -6z"/>
<path d="M1275 2730 c3 -5 10 -10 16 -10 5 0 9 5 9 10 0 6 -7 10 -16 10 -8 0
-12 -4 -9 -10z"/>
<path d="M1610 2199 c0 -5 5 -7 10 -4 6 3 10 8 10 11 0 2 -4 4 -10 4 -5 0 -10
-5 -10 -11z"/>
<path d="M1665 2120 c-3 -5 -1 -10 4 -10 6 0 11 5 11 10 0 6 -2 10 -4 10 -3 0
-8 -4 -11 -10z"/>
<path d="M1951 1554 c0 -11 3 -14 6 -6 3 7 2 16 -1 19 -3 4 -6 -2 -5 -13z"/>
<path d="M1926 1475 c-3 -8 -1 -15 4 -15 6 0 10 7 10 15 0 8 -2 15 -4 15 -2 0
-6 -7 -10 -15z"/>
<path d="M2240 2186 c0 -8 -3 -22 -6 -30 -5 -12 -2 -15 10 -10 17 7 23 54 6
54 -5 0 -10 -6 -10 -14z"/>
</g>
</svg>
